<svg width="723" height="172" viewBox="0 0 723 172" fill="none" xmlns="http://www.w3.org/2000/svg">
<path d="M648.414 169V57.4601H679.961V71.8814C688.674 60.6148 702.945 55.1317 722.774 55.4321V88.7815C718.117 86.2277 712.709 84.9508 706.55 84.9508C699.339 84.9508 693.105 87.8801 687.847 93.7388C682.59 99.5975 679.961 107.634 679.961 117.849V169H648.414Z" fill="white"/>
<path d="M556.64 171.028C541.768 171.028 529.375 165.47 519.46 154.353C509.545 143.237 504.588 129.492 504.588 113.117C504.588 96.7431 509.545 83.0729 519.46 72.1067C529.375 60.9902 541.768 55.432 556.64 55.432C572.263 55.432 584.506 60.84 593.369 71.656V0H624.916V169H593.369V154.804C584.506 165.62 572.263 171.028 556.64 171.028ZM544.247 134.749C549.655 140.458 556.415 143.312 564.527 143.312C572.639 143.312 579.474 140.458 585.032 134.749C590.59 128.891 593.369 121.68 593.369 113.117C593.369 104.555 590.59 97.4191 585.032 91.7107C579.474 85.852 572.639 82.9227 564.527 82.9227C556.415 82.9227 549.655 85.7769 544.247 91.4854C538.839 97.1938 536.135 104.404 536.135 113.117C536.135 121.83 538.839 129.041 544.247 134.749Z" fill="white"/>
<path d="M376.43 169V57.4601H407.976V70.7548C416.689 60.5397 427.731 55.4321 441.1 55.4321C455.672 55.4321 467.314 60.3144 476.027 70.0788C484.89 79.8433 489.322 93.5135 489.322 111.089V169H457.775V113.793C457.775 103.729 455.522 95.9921 451.015 90.5841C446.659 85.1761 440.8 82.4721 433.439 82.4721C425.627 82.4721 419.393 85.3264 414.736 91.0348C410.23 96.7432 407.976 104.555 407.976 114.469V169H376.43Z" fill="white"/>
<path d="M304.179 53.8545C320.704 53.8545 334.149 59.1123 344.514 69.6278C355.029 79.9932 360.362 94.3394 360.513 112.667C360.513 116.572 360.437 119.652 360.287 121.905H274.661C276.163 129.717 279.618 135.726 285.026 139.932C290.434 144.138 296.818 146.241 304.179 146.241C316.497 146.241 325.961 141.96 332.571 133.397L351.725 149.396C346.617 156.456 339.782 162.015 331.219 166.071C322.657 169.976 313.718 171.929 304.405 171.929C287.58 171.929 273.534 166.296 262.267 155.029C251.001 143.612 245.367 129.717 245.367 113.342C245.367 96.3674 250.925 82.2465 262.042 70.9798C273.309 59.5629 287.354 53.8545 304.179 53.8545ZM304.405 78.4158C297.194 78.4158 290.96 80.519 285.702 84.7252C280.594 88.7812 277.064 94.4145 275.111 101.625H332.121C328.065 86.1523 318.826 78.4158 304.405 78.4158Z" fill="white"/>
<path d="M239.257 169H202.978L175.938 113.793H146.419V169H113.746V11.2666H182.247C196.969 11.2666 209.513 15.9235 219.878 25.2373C230.394 34.4008 235.651 46.8693 235.651 62.6426C235.651 73.4586 233.023 82.8475 227.765 90.8093C222.507 98.6208 215.522 104.555 206.809 108.611L239.257 169ZM146.419 40.3346V85.4013H178.867C185.928 85.4013 191.636 83.3733 195.993 79.3173C200.349 75.1111 202.527 69.703 202.527 63.0933C202.527 56.3333 200.349 50.8502 195.993 46.6439C191.636 42.4377 185.928 40.3346 178.867 40.3346H146.419Z" fill="white"/>
<rect x="49.4941" y="60.4951" width="50.5049" height="50.5049" fill="#A5CBE3"/>
<rect x="49.4941" y="11" width="50.5049" height="49.4948" fill="#64B0F8"/>
<rect y="11" width="49.4948" height="49.4948" fill="#298DD0"/>
</svg>
