<svg width="730" height="172" viewBox="0 0 730 172" fill="none" xmlns="http://www.w3.org/2000/svg">
<path d="M655.414 169V57.4601H686.961V71.8814C695.674 60.6148 709.945 55.1317 729.774 55.4321V88.7815C725.117 86.2277 719.709 84.9508 713.55 84.9508C706.339 84.9508 700.105 87.8801 694.847 93.7388C689.59 99.5975 686.961 107.634 686.961 117.849V169H655.414Z" fill="white"/>
<path d="M563.64 171.028C548.768 171.028 536.375 165.47 526.46 154.353C516.545 143.237 511.588 129.492 511.588 113.117C511.588 96.7431 516.545 83.0729 526.46 72.1067C536.375 60.9902 548.768 55.432 563.64 55.432C579.263 55.432 591.506 60.84 600.369 71.656V0H631.916V169H600.369V154.804C591.506 165.62 579.263 171.028 563.64 171.028ZM551.247 134.749C556.655 140.458 563.415 143.312 571.527 143.312C579.639 143.312 586.474 140.458 592.032 134.749C597.59 128.891 600.369 121.68 600.369 113.117C600.369 104.555 597.59 97.4191 592.032 91.7107C586.474 85.852 579.639 82.9227 571.527 82.9227C563.415 82.9227 556.655 85.7769 551.247 91.4854C545.839 97.1938 543.135 104.404 543.135 113.117C543.135 121.83 545.839 129.041 551.247 134.749Z" fill="white"/>
<path d="M383.43 169V57.4601H414.976V70.7548C423.689 60.5397 434.731 55.4321 448.1 55.4321C462.672 55.4321 474.314 60.3144 483.027 70.0788C491.89 79.8433 496.322 93.5135 496.322 111.089V169H464.775V113.793C464.775 103.729 462.522 95.9921 458.015 90.5841C453.659 85.1761 447.8 82.4721 440.439 82.4721C432.627 82.4721 426.393 85.3264 421.736 91.0348C417.23 96.7432 414.976 104.555 414.976 114.469V169H383.43Z" fill="white"/>
<path d="M311.179 53.8545C327.704 53.8545 341.149 59.1123 351.514 69.6278C362.029 79.9932 367.362 94.3394 367.513 112.667C367.513 116.572 367.437 119.652 367.287 121.905H281.661C283.163 129.717 286.618 135.726 292.026 139.932C297.434 144.138 303.818 146.241 311.179 146.241C323.497 146.241 332.961 141.96 339.571 133.397L358.725 149.396C353.617 156.456 346.782 162.015 338.219 166.071C329.657 169.976 320.718 171.929 311.405 171.929C294.58 171.929 280.534 166.296 269.267 155.029C258.001 143.612 252.367 129.717 252.367 113.342C252.367 96.3674 257.925 82.2465 269.042 70.9798C280.309 59.5629 294.354 53.8545 311.179 53.8545ZM311.405 78.4158C304.194 78.4158 297.96 80.519 292.702 84.7252C287.594 88.7812 284.064 94.4145 282.111 101.625H339.121C335.065 86.1523 325.826 78.4158 311.405 78.4158Z" fill="white"/>
<path d="M246.257 169H209.978L182.938 113.793H153.419V169H120.746V11.2666H189.247C203.969 11.2666 216.513 15.9235 226.878 25.2373C237.394 34.4008 242.651 46.8693 242.651 62.6426C242.651 73.4586 240.023 82.8475 234.765 90.8093C229.507 98.6208 222.522 104.555 213.809 108.611L246.257 169ZM153.419 40.3346V85.4013H185.867C192.928 85.4013 198.636 83.3733 202.993 79.3173C207.349 75.1111 209.527 69.703 209.527 63.0933C209.527 56.3333 207.349 50.8502 202.993 46.6439C198.636 42.4377 192.928 40.3346 185.867 40.3346H153.419Z" fill="white"/>
<rect x="49.4941" y="60.4951" width="50.5049" height="50.5049" fill="#9F9FA9"/>
<rect x="49.4941" y="11" width="50.5049" height="49.4948" fill="#23D3EE"/>
<rect y="11" width="49.4948" height="49.4948" fill="#3FBEF3"/>
</svg>
