<svg width="610" height="172" viewBox="0 0 610 172" fill="none" xmlns="http://www.w3.org/2000/svg">
<path d="M534.668 169V57.4599H566.215V71.8812C574.928 60.6145 589.199 55.1314 609.028 55.4319V88.7812C604.371 86.2274 598.963 84.9505 592.804 84.9505C585.593 84.9505 579.359 87.8799 574.101 93.7385C568.844 99.5972 566.215 107.634 566.215 117.849V169H534.668Z" fill="white"/>
<path d="M442.894 171.028C428.022 171.028 415.628 165.47 405.714 154.353C395.799 143.237 390.842 129.492 390.842 113.117C390.842 96.7431 395.799 83.0729 405.714 72.1067C415.628 60.9902 428.022 55.432 442.894 55.432C458.517 55.432 470.76 60.84 479.623 71.656V0H511.17V169H479.623V154.804C470.76 165.62 458.517 171.028 442.894 171.028ZM430.5 134.749C435.908 140.458 442.668 143.312 450.78 143.312C458.892 143.312 465.728 140.458 471.286 134.749C476.844 128.891 479.623 121.68 479.623 113.117C479.623 104.555 476.844 97.4191 471.286 91.7107C465.728 85.852 458.892 82.9227 450.78 82.9227C442.668 82.9227 435.908 85.7769 430.5 91.4854C425.092 97.1938 422.388 104.404 422.388 113.117C422.388 121.83 425.092 129.041 430.5 134.749Z" fill="white"/>
<path d="M262.684 169V57.4599H294.23V70.7546C302.943 60.5394 313.984 55.4319 327.354 55.4319C341.926 55.4319 353.568 60.3141 362.281 70.0786C371.144 79.843 375.576 93.5132 375.576 111.089V169H344.029V113.793C344.029 103.728 341.776 95.9919 337.269 90.5839C332.913 85.1759 327.054 82.4719 319.693 82.4719C311.881 82.4719 305.647 85.3261 300.99 91.0346C296.484 96.743 294.23 104.555 294.23 114.469V169H262.684Z" fill="white"/>
<path d="M190.433 53.8547C206.958 53.8547 220.402 59.1125 230.768 69.6281C241.283 79.9934 246.616 94.3396 246.766 112.667C246.766 116.573 246.691 119.652 246.541 121.905H160.914C162.417 129.717 165.872 135.726 171.28 139.932C176.688 144.138 183.072 146.241 190.433 146.241C202.751 146.241 212.215 141.96 218.825 133.397L237.978 149.396C232.871 156.457 226.036 162.015 217.473 166.071C208.91 169.977 199.972 171.929 190.658 171.929C173.834 171.929 159.788 166.296 148.521 155.029C137.254 143.613 131.621 129.717 131.621 113.343C131.621 96.3676 137.179 82.2467 148.296 70.9801C159.562 59.5632 173.608 53.8547 190.433 53.8547ZM190.658 78.4161C183.448 78.4161 177.214 80.5192 171.956 84.7254C166.848 88.7814 163.318 94.4147 161.365 101.625H218.374C214.318 86.1525 205.08 78.4161 190.658 78.4161Z" fill="white"/>
<path d="M125.511 169H89.232L62.192 113.793H32.6733V169H0V11.2666H68.5013C83.2231 11.2666 95.7667 15.9235 106.132 25.2373C116.648 34.4008 121.905 46.8693 121.905 62.6426C121.905 73.4586 119.276 82.8475 114.019 90.8093C108.761 98.6208 101.776 104.555 93.0627 108.611L125.511 169ZM32.6733 40.3346V85.4013H65.1213C72.1818 85.4013 77.8902 83.3733 82.2467 79.3173C86.6031 75.1111 88.7813 69.703 88.7813 63.0933C88.7813 56.3333 86.6031 50.8502 82.2467 46.6439C77.8902 42.4377 72.1818 40.3346 65.1213 40.3346H32.6733Z" fill="white"/>
</svg>
