<svg width="725" height="172" viewBox="0 0 725 172" fill="none" xmlns="http://www.w3.org/2000/svg">
<path d="M650.414 169V57.4601H681.961V71.8814C690.674 60.6148 704.945 55.1317 724.774 55.4321V88.7815C720.117 86.2277 714.709 84.9508 708.55 84.9508C701.339 84.9508 695.105 87.8801 689.847 93.7388C684.59 99.5975 681.961 107.634 681.961 117.849V169H650.414Z" fill="white"/>
<path d="M558.64 171.028C543.768 171.028 531.375 165.47 521.46 154.353C511.545 143.237 506.588 129.492 506.588 113.117C506.588 96.7431 511.545 83.0729 521.46 72.1067C531.375 60.9902 543.768 55.432 558.64 55.432C574.263 55.432 586.506 60.84 595.369 71.656V0H626.916V169H595.369V154.804C586.506 165.62 574.263 171.028 558.64 171.028ZM546.247 134.749C551.655 140.458 558.415 143.312 566.527 143.312C574.639 143.312 581.474 140.458 587.032 134.749C592.59 128.891 595.369 121.68 595.369 113.117C595.369 104.555 592.59 97.4191 587.032 91.7107C581.474 85.852 574.639 82.9227 566.527 82.9227C558.415 82.9227 551.655 85.7769 546.247 91.4854C540.839 97.1938 538.135 104.404 538.135 113.117C538.135 121.83 540.839 129.041 546.247 134.749Z" fill="white"/>
<path d="M378.43 169V57.4601H409.976V70.7548C418.689 60.5397 429.731 55.4321 443.1 55.4321C457.672 55.4321 469.314 60.3144 478.027 70.0788C486.89 79.8433 491.322 93.5135 491.322 111.089V169H459.775V113.793C459.775 103.729 457.522 95.9921 453.015 90.5841C448.659 85.1761 442.8 82.4721 435.439 82.4721C427.627 82.4721 421.393 85.3264 416.736 91.0348C412.23 96.7432 409.976 104.555 409.976 114.469V169H378.43Z" fill="white"/>
<path d="M306.179 53.8545C322.704 53.8545 336.149 59.1123 346.514 69.6278C357.029 79.9932 362.362 94.3394 362.513 112.667C362.513 116.572 362.437 119.652 362.287 121.905H276.661C278.163 129.717 281.618 135.726 287.026 139.932C292.434 144.138 298.818 146.241 306.179 146.241C318.497 146.241 327.961 141.96 334.571 133.397L353.725 149.396C348.617 156.456 341.782 162.015 333.219 166.071C324.657 169.976 315.718 171.929 306.405 171.929C289.58 171.929 275.534 166.296 264.267 155.029C253.001 143.612 247.367 129.717 247.367 113.342C247.367 96.3674 252.925 82.2465 264.042 70.9798C275.309 59.5629 289.354 53.8545 306.179 53.8545ZM306.405 78.4158C299.194 78.4158 292.96 80.519 287.702 84.7252C282.594 88.7812 279.064 94.4145 277.111 101.625H334.121C330.065 86.1523 320.826 78.4158 306.405 78.4158Z" fill="white"/>
<path d="M241.257 169H204.978L177.938 113.793H148.419V169H115.746V11.2666H184.247C198.969 11.2666 211.513 15.9235 221.878 25.2373C232.394 34.4008 237.651 46.8693 237.651 62.6426C237.651 73.4586 235.023 82.8475 229.765 90.8093C224.507 98.6208 217.522 104.555 208.809 108.611L241.257 169ZM148.419 40.3346V85.4013H180.867C187.928 85.4013 193.636 83.3733 197.993 79.3173C202.349 75.1111 204.527 69.703 204.527 63.0933C204.527 56.3333 202.349 50.8502 197.993 46.6439C193.636 42.4377 187.928 40.3346 180.867 40.3346H148.419Z" fill="white"/>
<path d="M100 11V111H50V61H0V11H100Z" fill="white"/>
</svg>
